<?xml version="1.0" encoding="utf-8"?>
<!-- Generator: Adobe Illustrator 13.0.2, SVG Export Plug-In  -->
<!DOCTYPE svg PUBLIC "-//W3C//DTD SVG 1.1//EN" "http://www.w3.org/Graphics/SVG/1.1/DTD/svg11.dtd" [
	<!ENTITY ns_flows "http://ns.adobe.com/Flows/1.0/">
]>
<svg version="1.1"
	 xmlns="http://www.w3.org/2000/svg" xmlns:xlink="http://www.w3.org/1999/xlink" xmlns:a="http://ns.adobe.com/AdobeSVGViewerExtensions/3.0/"
	 x="0px" y="0px" width="91px" height="56px" viewBox="-0.948 -0.51 91 56" enable-background="new -0.948 -0.51 91 56"
	 xml:space="preserve">
<defs>
</defs>
<rect x="84.349" y="36.187" fill="#FF0000" width="5.193" height="5.193"/>
<path d="M78.296,41.389c0-0.73,0-40.537,0-41.389c-0.771,0-9.281,0-10.053,0c0,0.684,0,4.193,0,4.877c0.722,0,4.807,0,4.807,0
	s0,35.782,0,36.512C73.743,41.389,77.601,41.389,78.296,41.389z"/>
<path d="M61.363,41.389c0-0.73,0-40.537,0-41.389c-0.771,0-9.28,0-10.052,0c0,0.684,0,4.193,0,4.877c0.723,0,4.807,0,4.807,0
	s0,35.782,0,36.512C56.812,41.389,60.669,41.389,61.363,41.389z"/>
<path d="M24.1,28.611c0.253,5.859,5.356,8.84,9.745,8.816c3.894,0,6.768-1.868,8.357-4.867h5.73
	c-1.365,3.156-3.417,5.567-5.871,7.175c-2.424,1.612-5.279,2.423-8.241,2.423c-9.438,0-15.286-7.581-15.286-15.239
	c0-8.344,6.492-15.404,15.222-15.404c4.189,0,7.954,1.565,10.697,4.278c3.439,3.441,4.867,7.963,4.366,12.819H24.1z M43.367,24.291
	c-0.261-3.817-4.098-8.166-9.58-8.047c-5.65,0-9.296,4.086-9.605,8.047H43.367z"/>
<path d="M2.347,18.18c0.721,0,4.807,0,4.807,0v28.21c0,1.348-0.375,2.384-1.116,3.08c-1.016,0.957-2.338,0.889-2.367,0.886
	c0,0-2.974,0-3.671,0c0,0.681,0,4.093,0,4.772c0.742,0,5.188,0,5.188,0c2.049,0,3.701-0.629,4.91-1.871
	c2.215-2.276,2.301-5.947,2.301-6.5c0-0.043,0-32.604,0-33.454c-0.771,0-9.281,0-10.052,0C2.347,13.987,2.347,17.496,2.347,18.18z"
	/>
<rect x="7.173" y="3.315" width="5.193" height="5.193"/>
</svg>
